<svg width="37" height="150" viewBox="0 0 37 150" fill="none" xmlns="http://www.w3.org/2000/svg">
<path fill-rule="evenodd" clip-rule="evenodd" d="M21.7288 14.6307C21.7029 14.6466 15.6421 14.0083 15.6331 21.1158C15.5982 27.9693 21.7029 27.2175 21.7288 27.2145V14.6307ZM6.40939 21.1158C6.68425 -3.79282 29.2028 0.23546 29.2336 0.24741V26.8231H36.7375V37.689C36.7355 37.6551 32.6953 42.1465 24.7005 42.0638C6.07179 41.9035 6.39346 21.8995 6.40939 21.1158ZM0 53.5561V68.4065H7.0348V74.5818H16.1798V68.4065H28.2955C30.9087 68.3935 33.0398 68.4493 35.0923 66.5312C36.8092 64.8542 36.7285 62.6553 36.7375 60.0432V53.5561H16.1798V44.6451H7.0348V53.5561H0ZM6.48707 83.4938C7.20609 88.4064 11.2662 90.1303 11.2563 90.1373H7.0348V103.894H36.7375V88.8865H22.5106C19.998 88.8695 18.8707 88.1654 17.9774 87.2463C16.9128 86.2096 16.1669 84.3921 16.1798 82.3994V78.1789H7.0348C7.02185 78.1819 6.02698 80.3459 6.48707 83.4938ZM6.17437 128.269C6.19827 119.895 8.46387 109.588 16.8052 109.588H36.7375V124.36H28.1392C28.1133 124.368 29.4059 127.945 30.2504 130.692C30.7593 132.541 31.803 133.94 33.6892 134.052C35.2776 134.196 36.7355 132.393 36.7375 132.411V146.872C36.7355 146.891 35.5803 150.096 32.1236 149.998C25.536 149.7 23.1121 144.569 21.6521 131.941C20.8126 125.138 20.1563 124.368 18.4474 124.36C17.0452 124.368 15.4568 125.197 15.3981 129.05C15.4001 134.604 19.1595 134.216 19.1505 134.209V148.357C19.1445 148.386 6.18931 148.22 6.17437 128.269Z" fill="#FA481C"/>
</svg>
